<svg width="17" height="150" id="bollard-ca-1f" viewBox="0 0 17 150" fill="none" xmlns="http://www.w3.org/2000/svg">
<g clip-path="url(#clip0_237_28)">
<rect x="0.0717773" y="150" width="148.13" height="16" transform="rotate(-90 0.0717773 150)" fill="url(#paint0_linear_237_28)"/>
<path d="M0.0717922 1.92493C0.0717922 1.92493 1.34377 3.65226 8.01068 3.65226C14.6776 3.65226 16.0718 1.92493 16.0718 1.92493V45.6397C16.0718 45.6397 12.8251 47.7636 8.07177 47.7636C3.31847 47.7636 0.0717773 45.6397 0.0717773 45.6397L0.0717922 1.92493Z" fill="#272725"/>
<path d="M0.0717773 14.5377C0.0717773 14.5377 3.52467 15.7612 8.07177 15.7612C12.6189 15.7612 16.0718 14.5377 16.0718 14.5377V33.6185C16.0718 33.6185 12.8251 35.2474 8.07177 35.2474C3.31847 35.2474 0.0717773 33.6185 0.0717773 33.6185V14.5377Z" fill="#F7CA5A"/>
<path d="M8.0722 0C4.8056 0 0.779512 0.509949 0.0717773 1.8223C0.631829 3.2865 4.33794 3.73982 8.0722 3.73982C11.8065 3.73982 14.9816 3.76815 16.0718 1.8223C14.7847 0.368288 11.3388 0 8.0722 0Z" fill="#090601"/>
</g>
<defs>
<linearGradient id="paint0_linear_237_28" x1="74.1368" y1="150" x2="74.1368" y2="166" gradientUnits="userSpaceOnUse">
<stop stop-color="#F9F8FF"/>
<stop offset="0.317708" stop-color="#F1EFF8"/>
<stop offset="0.734375" stop-color="#CDCBD5"/>
<stop offset="1" stop-color="#B9B6C2"/>
</linearGradient>
<clipPath id="clip0_237_28">
<rect width="16" height="150" fill="white" transform="translate(0.0717773)"/>
</clipPath>
</defs>
</svg>
