<svg width="17" height="150" id="bollard-default" viewBox="0 0 17 150" fill="none" xmlns="http://www.w3.org/2000/svg">
<g clip-path="url(#clip0_380_26)">
<path d="M16.6575 8.64062L0.661377 0.015625V150.003H16.6575V8.64062Z" fill="white"/>
<path d="M5.57632 18.3685L15.6582 19.6633L11.7464 41.8316L1.66452 40.5367L5.57632 18.3685Z" fill="url(#paint0_linear_380_26)"/>
<path d="M9.04371 30.9824L9.01981 31.1487C8.96936 31.4998 8.76399 31.6494 8.40369 31.5976L8.3344 31.5877C7.96486 31.5346 7.80532 31.3325 7.85577 30.9814L7.87966 30.8152C7.91816 30.5472 7.97375 30.3572 8.04644 30.2451C8.1297 30.125 8.18521 30.034 8.21298 29.972C8.24999 29.9113 8.31604 29.8454 8.41113 29.7742C8.51679 29.6951 8.58614 29.639 8.61916 29.606C8.66275 29.5652 8.75124 29.5072 8.88461 29.432C9.02723 29.3582 9.11438 29.3095 9.14608 29.2857C9.25699 29.2357 9.4544 29.1415 9.7383 29.0031C10.0328 28.8568 10.2467 28.7461 10.3801 28.671C10.5227 28.5972 10.6614 28.4851 10.7961 28.3348C10.9309 28.1844 11.0109 28.0215 11.0361 27.8459C11.0998 27.4025 10.9893 27.0236 10.7044 26.7092C10.4288 26.3961 10.0185 26.2005 9.47339 26.1221C8.92832 26.0438 8.50261 26.0863 8.19625 26.2498C7.89122 26.4039 7.63692 26.6644 7.43334 27.0312C7.22086 27.0007 7.04868 26.9193 6.91679 26.7872C6.79415 26.6565 6.74543 26.5033 6.77066 26.3278C6.83172 25.9028 7.13031 25.5638 7.66641 25.3109C8.20251 25.0579 8.90015 24.9931 9.75932 25.1166C10.6277 25.2414 11.269 25.5692 11.683 26.1002C12.097 26.6311 12.2529 27.2523 12.1507 27.9637C12.0989 28.324 11.9594 28.6386 11.7321 28.9077C11.5141 29.1781 11.2618 29.3918 10.9753 29.5486C10.6887 29.7054 10.4035 29.853 10.1196 29.9914C9.45146 30.3103 9.09282 30.6406 9.04371 30.9824ZM7.13687 33.622C7.17537 33.3541 7.29433 33.1496 7.49375 33.0086C7.69318 32.8675 7.91761 32.8149 8.16705 32.8507C8.42573 32.8879 8.63088 33.0022 8.78252 33.1938C8.93415 33.3853 8.99072 33.615 8.95222 33.8829C8.91372 34.1508 8.79476 34.3553 8.59533 34.4964C8.39591 34.6374 8.16685 34.6894 7.90818 34.6522C7.65874 34.6164 7.4582 34.5027 7.30657 34.3112C7.15494 34.1197 7.09837 33.89 7.13687 33.622Z" fill="white"/>
</g>
<defs>
<linearGradient id="paint0_linear_380_26" x1="3.62042" y1="29.4526" x2="13.6194" y2="31.217" gradientUnits="userSpaceOnUse">
<stop stop-color="#A42B33"/>
<stop offset="1" stop-color="#86201E"/>
</linearGradient>
<clipPath id="clip0_380_26">
<rect width="16" height="150" fill="white" transform="translate(0.661377)"/>
</clipPath>
</defs>
</svg>
