<svg width="34" height="150" viewBox="0 0 34 150" fill="none" xmlns="http://www.w3.org/2000/svg">
<g clip-path="url(#clip0_380_26)">
<path d="M32 17.6993C32 17.6993 33.5806 0.015625 17.5136 0.015625C1.44665 0.015625 2.08954 17.6993 2.08954 17.6993V153.218H32V17.6993Z" fill="white"/>
<g filter="url(#filter0_d_380_26)">
<path d="M18.0542 75.69L18.0522 76.05C18.0479 76.81 17.6558 77.1878 16.8758 77.1834L16.7258 77.1826C15.9258 77.1781 15.528 76.7958 15.5322 76.0358L15.5342 75.6759C15.5375 75.0959 15.5998 74.6762 15.7213 74.4169C15.8629 74.1377 15.954 73.9282 15.9948 73.7884C16.0556 73.6487 16.1765 73.4894 16.3575 73.3104C16.5586 73.1116 16.6894 72.9723 16.7499 72.8926C16.8304 72.7931 17.0013 72.644 17.2624 72.4455C17.5435 72.2471 17.7142 72.118 17.7746 72.0584C17.9953 71.9196 18.3868 71.6618 18.9489 71.2849C19.5311 70.8882 19.9528 70.5905 20.2139 70.392C20.495 70.1936 20.7566 69.915 20.9986 69.5564C21.2406 69.1977 21.3627 68.8284 21.3648 68.4484C21.3702 67.4884 21.0245 66.7165 20.3278 66.1326C19.6511 65.5488 18.7227 65.2536 17.5427 65.2469C16.3627 65.2403 15.4715 65.4553 14.8691 65.892C14.2667 66.3086 13.8032 66.936 13.4785 67.7742C13.0185 67.7716 12.6292 67.6494 12.3105 67.4077C12.0119 67.166 11.8636 66.8551 11.8658 66.4751C11.8709 65.5552 12.4054 64.7481 13.4694 64.0541C14.5333 63.36 15.9952 63.0182 17.8552 63.0287C19.7351 63.0392 21.1923 63.5474 22.2267 64.5532C23.2611 65.559 23.7739 66.8319 23.7653 68.3719C23.7609 69.1519 23.557 69.8607 23.1534 70.4985C22.7698 71.1363 22.2968 71.6637 21.7345 72.0806C21.1721 72.4974 20.6099 72.8943 20.0478 73.2711C18.7229 74.1437 18.0583 74.95 18.0542 75.69ZM14.7796 81.8517C14.7829 81.2717 14.9755 80.8028 15.3575 80.4449C15.7395 80.0871 16.2005 79.9097 16.7405 79.9127C17.3005 79.9158 17.7695 80.0985 18.1475 80.4606C18.5254 80.8227 18.7128 81.2938 18.7095 81.8737C18.7063 82.4537 18.5137 82.9227 18.1317 83.2805C17.7496 83.6384 17.2786 83.8158 16.7186 83.8126C16.1787 83.8096 15.7197 83.627 15.3417 83.2649C14.9637 82.9028 14.7764 82.4317 14.7796 81.8517Z" fill="#292929"/>
</g>
</g>
<defs>
<filter id="filter0_d_380_26" x="9.7688" y="61.9952" width="16.0264" height="24.8565" filterUnits="userSpaceOnUse" color-interpolation-filters="sRGB">
<feFlood flood-opacity="0" result="BackgroundImageFix"/>
<feColorMatrix in="SourceAlpha" type="matrix" values="0 0 0 0 0 0 0 0 0 0 0 0 0 0 0 0 0 0 127 0" result="hardAlpha"/>
<feOffset dy="1"/>
<feGaussianBlur stdDeviation="1"/>
<feComposite in2="hardAlpha" operator="out"/>
<feColorMatrix type="matrix" values="0 0 0 0 0 0 0 0 0 0 0 0 0 0 0 0 0 0 0.1 0"/>
<feBlend mode="normal" in2="BackgroundImageFix" result="effect1_dropShadow_380_26"/>
<feBlend mode="normal" in="SourceGraphic" in2="effect1_dropShadow_380_26" result="shape"/>
</filter>
<clipPath id="clip0_380_26">
<rect width="34" height="150" fill="white"/>
</clipPath>
</defs>
</svg>
